<svg t="1728010917170" class="icon" viewBox="0 0 1024 1024" version="1.1" xmlns="http://www.w3.org/2000/svg" p-id="16382" width="16" height="16"><path d="M807.36 224H704v98.88C704 416 564.16 416 512 416s-192 0-192-93.12V224H216.64A185.28 185.28 0 0 0 32 408.64v398.72A185.28 185.28 0 0 0 216.64 992h590.72A185.28 185.28 0 0 0 992 807.36V408.64A185.28 185.28 0 0 0 807.36 224z m-110.4 664.64a23.68 23.68 0 0 1-17.28 7.36H344.32a23.68 23.68 0 0 1-23.68-24.96 181.12 181.12 0 0 1 15.04-62.4 94.08 94.08 0 0 1 61.44-53.44 440 440 0 0 1 64-12.8 120.96 120.96 0 1 1 100.48 0 439.04 439.04 0 0 1 64 12.48 94.08 94.08 0 0 1 61.44 53.44 181.12 181.12 0 0 1 16.96 62.72 23.68 23.68 0 0 1-7.04 17.6zM640 322.24V61.76c0-38.72-256-38.72-256 0v260.8c0 38.4 256 38.4 256-0.32z" fill="#231F20" p-id="16383"></path></svg>